<?xml version="1.0" encoding="utf-8"?>
<!-- Generator: Adobe Illustrator 16.0.0, SVG Export Plug-In . SVG Version: 6.00 Build 0)  -->
<!DOCTYPE svg PUBLIC "-//W3C//DTD SVG 1.1//EN" "http://www.w3.org/Graphics/SVG/1.1/DTD/svg11.dtd">
<svg version="1.1" xmlns="http://www.w3.org/2000/svg" xmlns:xlink="http://www.w3.org/1999/xlink" x="0px" y="0px" width="154px"
	 height="154px" viewBox="0 0 154 154" enable-background="new 0 0 154 154" xml:space="preserve">
<g id="Capa_1">
	<g>
		<path fill="#00AA9D" d="M150.187,77.822c-0.134,0.413-0.245,0.867-0.249,1.013c-0.003,0.143,0.098,0.098,0.228-0.102
			c0.13-0.2,0.24-0.655,0.25-1.01C150.424,77.365,150.322,77.41,150.187,77.822z"/>
		<path fill="#00AA9D" d="M146.15,85.78c0.014-0.433-0.03-0.791-0.096-0.798c-0.075-0.007-0.117,0.409-0.117,1.111
			C145.938,87.314,146.108,87.066,146.15,85.78z"/>
		<path fill="#00AA9D" d="M146.004,92.448c-0.052-0.012-0.352,0.866-0.669,1.943c-0.263,0.917-0.421,1.376-0.476,1.438
			c-0.051,0.063,0.035-0.262,0.142-0.947c0.135-0.807,0.147-1.058,0.028-0.563c-0.118,0.494-0.293,0.878-0.384,0.855
			c-0.085-0.021-0.319,0.43-0.521,1.003c-0.449,1.289-0.762,1.298-0.399,0.024c0.162-0.507,0.574-1.648,0.927-2.541
			c0.746-1.741,1.021-3.146,0.965-3.995c-0.02-0.296-0.062-0.222-0.093,0.162c-0.031,0.385-0.189,1.165-0.351,1.732
			c-0.273,0.876-0.003,0.87,0.095-0.017c0.072-0.965-0.269-0.249-1.269,2.82V93.5c0-0.617,0.07-1.285,0.236-1.858
			c0.277-1.157,0.586-2.812,0.854-3.679l0.358-1.59l-0.281-0.03c-0.134-0.018-0.312,0.355-0.371,0.826
			c-0.032,0.477-0.148,2.028-0.568,3.444c-0.191,0.695-0.228,1.226-0.228,1.705V91.62c0-0.059-0.26-0.128-0.239-0.187
			c0.168-0.623,0.153-1.169,0.261-1.619c0.209-0.902,0.516-1.424,0.436-1.436C144.365,88.367,144,88.94,144,89.741v-5.66
			c0-2.228,0.031-4.483,0.031-6.768c0-38.132-31.074-69.057-69.206-69.057c-18.74,0-35.806,7.48-48.25,19.605
			c0.701-0.765,1.415-1.569,2.166-2.288c2.01-2.064,5.652-5.118,8.043-6.839c2.34-1.791,5.458-3.638,6.747-4.366
			c1.281-0.744,2.364-1.286,2.338-1.346c-0.005-0.011,0.127-0.092,0.376-0.23c0.25-0.136,0.608-0.337,1.061-0.563
			c0.922-0.417,2.179-1.038,3.609-1.612c2.833-1.225,7.598-2.702,10.531-3.373c1.46-0.352,4.126-0.924,7.286-1.302
			c0.791-0.089,1.61-0.193,2.447-0.272c0.84-0.055,1.697-0.1,2.556-0.157l0.646-0.018l0.163,0.035l0.081-0.314L74.664,5h0.112
			l0.311,0.21l1.245-0.002c0.838-0.002,1.616,0.048,2.474,0.085c3.021,0.071,5.474,0.341,7.424,0.562
			c1.942,0.26,3.384,0.472,4.253,0.654c1.751,0.323,1.312,0.183-1.676-0.374c-0.349-0.051-0.914-0.128-1.677-0.24
			c-0.76-0.119-1.717-0.248-2.856-0.335c-1.135-0.108-2.438-0.238-3.953-0.273c-0.741-0.022-1.561-0.077-2.341-0.073
			c-0.772,0.01-1.582,0.02-2.421,0.031c-3.583,0.103-7.548,0.438-11.87,1.258c-4.299,0.827-8.862,2.133-13.398,3.984
			c-1.14,0.503-2.275,1.006-3.352,1.482C45.891,12.5,44.901,13,44.021,13.445c-1.709,0.977-2.989,1.689-3.392,1.984
			c-0.613,0.409-1.479,0.985-2.461,1.638c-0.958,0.703-2.048,1.455-3.077,2.233c-1.008,0.809-2.021,1.547-2.815,2.23
			c-0.797,0.677-1.44,1.213-1.796,1.493c-0.717,0.567-1.3,1.043-1.346,0.989c-0.041-0.046,0.279-0.389,0.709-0.761
			c0.433-0.366,0.909-0.776,1.032-0.942c0.125-0.165-1.101,0.731-2.627,2.108c-1.554,1.342-2.431,2.272-2.107,1.889
			c0.34-0.364,0.479-0.583,0.311-0.487c-0.162,0.103,0.329-0.439,1.161-1.124c1.052-0.867,1.271-1.08,0.719-0.698
			c-0.642,0.444-0.631,0.388,0.069-0.294c0.482-0.459,1.142-1.064,1.509-1.281c0.357-0.231,0.467-0.337,0.243-0.237
			c-0.113,0.051,0.585-0.602,1.819-1.707c1.265-1.063,3.097-2.542,5.294-4.062c1.091-0.751,2.206-1.436,3.236-2.11
			c1.065-0.617,2.061-1.193,2.936-1.699c1.791-0.931,3.088-1.612,3.457-1.777c0.738-0.328,2.315-1.106,3.549-1.607
			c2.141-0.866,2.54-1.062,1.563-0.721c-0.486,0.175-1.322,0.464-2.437,0.908c-1.093,0.499-2.513,1.031-4.091,1.855
			c-3.545,1.706-6.507,3.59-6.842,3.742c-0.5,0.228-0.339,0.041,0.314-0.437c0.327-0.236,0.772-0.553,1.327-0.911
			c0.578-0.338,1.247-0.728,1.986-1.161c1.53-0.896,2.673-1.433,2.438-1.391c-0.154,0.043-0.635,0.261-1.305,0.584
			c-0.667,0.333-1.5,0.817-2.393,1.32c-0.901,0.488-1.805,1.103-2.643,1.647c-0.842,0.538-1.585,1.065-2.108,1.489
			c-0.409,0.326-1.201,0.865-2.184,1.595c-0.956,0.767-2.188,1.609-3.39,2.651c-2.496,1.967-5.055,4.458-6.918,6.285
			c-0.836,0.877-1.061,1.06-0.839,0.743c0.221-0.319,0.882-1.146,1.902-2.21c1.98-2.184,5.381-5.359,8.861-7.827
			c1.327-0.944,2.621-1.831,3.631-2.5c1.024-0.647,1.743-1.115,1.903-1.248c0.159-0.134,0.763-0.55,1.644-1.052
			c0.878-0.506,1.985-1.192,3.19-1.769c1.809-0.945,3.309-1.599,4.503-2.122c1.184-0.552,2.107-0.849,2.756-1.124
			c1.311-0.518,1.63-0.654,1.472-0.627c-0.166,0.028-1.225,0.41-2.346,0.849c-0.944,0.338-2.358,0.984-3.982,1.68
			c-1.597,0.758-3.4,1.586-5.029,2.511c-3.305,1.762-6.028,3.627-6.243,3.727c-0.471,0.212-0.375,0.063,0.364-0.504
			c0.728-0.584,2.147-1.509,4.333-2.832c3.051-1.751,4.397-2.402,3.76-2.19c-0.631,0.219-0.475,0.046,0.289-0.409
			c0.382-0.227,0.915-0.524,1.579-0.878c0.667-0.343,1.482-0.7,2.397-1.113c1.439-0.669,2.458-1.068,2.194-1.058
			c-0.26,0.025,0.524-0.353,1.752-0.838c1.591-0.6,2.217-0.791,1.839-0.709c-0.187,0.045-0.62,0.171-1.299,0.377
			c-0.666,0.24-1.574,0.568-2.726,0.984c-4.134,1.609-6.7,2.901-8.27,3.698c-1.563,0.813-2.165,1.085-2.208,1.019
			c-0.062-0.095-0.201-0.039-0.602,0.34c-0.283,0.262-1.24,0.909-2.126,1.439c-0.457,0.244-1.625,1.076-3.176,2.148
			c-1.52,1.119-3.378,2.545-5.13,4.094c-0.901,0.742-1.699,1.546-2.463,2.247c-0.77,0.697-1.431,1.377-1.996,1.958
			c-1.147,1.143-1.876,1.92-1.968,2.008c-0.608,0.545-0.122-0.443,5.039-5.261c1.427-1.269,2.752-2.401,3.739-3.189
			c0.492-0.391,0.893-0.71,1.173-0.934c0.275-0.224,0.424-0.353,0.417-0.363c-0.027-0.04-0.333,0.128-0.675,0.37
			c-0.342,0.244-0.653,0.403-0.689,0.353c-0.037-0.05,0.404-0.425,0.979-0.833c0.571-0.406,0.838-0.636,0.593-0.512
			c-0.243,0.135-0.014-0.193,0.561-0.655c0.583-0.48,0.791-0.663,0.417-0.401c-0.384,0.247-1.327,0.979-2.998,2.361
			c-1.289,1.065-2.976,2.546-3.794,3.245c-0.399,0.359-1.114,1.005-1.947,1.757c-0.82,0.759-1.699,1.685-2.516,2.503
			c-0.801,0.834-1.906,2.067-3.041,3.372c-1.103,1.335-2.255,2.728-3.109,3.923c-1.792,2.328-4.66,6.817-6.181,10.029
			c-1.59,3.176-3.122,6.965-3.577,8.347c-1.171,3.15-3.797,11.262-4.202,21.313c-0.027,1.088-0.097,2.237-0.083,3.199
			c0.014,0.957,0.028,1.859,0.041,2.657c0.004,0.235,0.008,0.461,0.013,0.681c0.011,0.195,0.022,0.383,0.033,0.563
			c0.021,0.36,0.039,0.687,0.055,0.973C2,79.56,2.019,79.973,2.028,80.177c0.094,2.467,0.02,4.3-0.328,3.731
			c-0.254-0.502-0.383-0.424,0.372,4.599c0.283,1.388,0.531,2.934,0.855,4.278c0.329,1.343,0.585,2.515,0.767,3.172
			c0.375,1.347,0.661,2.189,0.65,1.934c-0.046-0.585,1.473,4.04,2.347,6.269c0.379,1.073,0.663,1.753,0.742,1.719
			c0.063-0.027,0.337,0.521,0.619,1.234c0.157,0.381,0.481,1.142,0.973,2.109c0.523,0.954,1.132,2.155,1.893,3.396
			c1.499,2.495,3.419,5.238,5.066,7.206c1.278,1.572,3.071,3.626,3.966,4.581c0.848,0.998,2.556,2.686,3.724,3.802
			c0.61,0.535,1.687,1.549,2.992,2.684c0.663,0.557,1.375,1.15,2.095,1.752c0.732,0.587,1.496,1.152,2.212,1.709
			c1.449,1.091,3.409,2.468,5.454,3.706c1.002,0.652,2.061,1.21,3.039,1.761c0.97,0.564,1.922,1.011,2.733,1.414
			c2.046,1.045,5.167,2.405,8.763,3.666c3.592,1.273,7.7,2.323,11.6,2.967c0.971,0.192,1.934,0.313,2.872,0.429
			c0.939,0.111,1.833,0.26,2.733,0.31c0.891,0.07,1.743,0.136,2.544,0.199c0.798,0.057,1.488,0.052,2.152,0.081
			c0.682,0.021,1.305,0.04,1.858,0.058c0.551-0.007,1.034-0.013,1.436-0.019c0.802-0.008,1.28,0.57,1.35,0.587
			c0.228,0.072,1.586,0.49,3.094,0.49h3.648c-0.458,0-0.266,0,0.694,0h2.817c-0.118,0-0.22-0.541-0.344-0.522
			c-0.866,0.144-1.848,0.026-2.97,0.132c-1.12,0.121-2.366,0.24-3.77,0.3c-0.897,0.049-1.775,0.091-2.599,0.091
			c-0.821,0-1.586,0-2.255,0c-0.332,0-0.641-0.108-0.922-0.11c-0.069-0.003-0.136-0.063-0.203-0.063l-0.134-0.025l-0.047-0.014
			l-0.09-0.01c-0.118-0.009-0.229-0.019-0.331-0.027c-0.412-0.03-0.69-0.057-0.798-0.077c-0.491-0.091-1.323-0.157-2.034-0.178
			c-0.728-0.034-1.377-0.063-1.375,0.019c-0.008,0.059,0.602,0.172,1.306,0.218c0.672,0.022-0.002,0.077-1.695-0.021
			c0,0-0.757-0.038-1.516-0.074c-0.767-0.024-1.496-0.113-1.496-0.113s0.726,0.117,1.492,0.169c0.757,0.066,1.515,0.13,1.515,0.13
			c1.772,0.181,3,0.171,4.09,0.228c0.267,0.013,0.519,0.021,0.756,0.031l0.176,0.007l0.271,0.004
			c0.119-0.001,0.232-0.001,0.344-0.002c0.442-0.003,0.829-0.003,1.163-0.005c1.094-0.006,1.303,0.665,0.205,0.692
			c-0.411,0.012-0.75-0.026-0.751-0.092s-0.389-0.056-0.861,0c-0.072,0.01-0.134,0.053-0.188,0.06l-0.02,0.074l0.02-0.013l0.04-0.01
			c0.032,0.004,0.063,0.009,0.097,0.015c0.149,0.016,0.337,0.034,0.569,0.058c1.893,0.157,2.24,0.145,3.19-0.215
			c0.516-0.211,0.551-0.343,0.1-0.352c-1.152-0.059-1.159-0.122,0.076-0.216c0.622-0.052,1.548-0.132,2.798-0.237
			c1.251-0.115,2.821,0.27,4.72,0.006c0.883-0.152,1.707,0.145,2.491,0.145h7.587c-0.183,0-0.358-0.475-0.5-0.427
			c-0.331,0.103-0.534-0.118-0.532-0.108c0.005,0.014,0.217,0.403,0.554,0.326c0.241-0.061,0.562,0.209,0.902,0.209h1.74
			c-0.08,0-0.165-0.522-0.245-0.497c-0.857,0.288-1.713,0.239-2.55,0.452c-0.834,0.217-1.638,0.298-2.417,0.484
			c-1.569,0.318-2.989,0.595-4.226,0.78c-1.232,0.189-2.258,0.312-3.004,0.427c-0.751,0.078-1.22,0.103-1.339,0.108
			c-0.402,0.014-1.521,0.185-2.496,0.377c-1.488,0.233-1.985,0.261-3.043,0.185c-0.692-0.03-1.662-0.116-2.159-0.094
			c-0.526,0.012-0.424,0.055,0.249,0.101c1.089,0.073,1.012,0.095-0.697,0.172c-1.678,0.074-1.68,0.226,0.005,0.185
			c1.504-0.038,1.64-0.02,0.708,0.099c-0.874,0.109-0.691,0.117,0.773,0.028c1.691-0.142,4.434-0.358,7.473-0.803
			c1.517-0.221,3.107-0.518,4.682-0.816c1.56-0.362,3.129-0.075,4.561-0.491c1.1-0.275,2.631-0.696,4.349-0.696H144v-42.302
			c0-0.011-0.289-0.021-0.282-0.032c1.273-2.166,1.155-2.552,0.636-2.414c-0.15,0.033-0.114-0.437,0.231-1.313
			c0.414-1.032,0.396-1.351,0.148-1.274c-0.288,0.088-0.274-0.069,0.224-1.23c0.315-0.735,0.6-1.326,0.646-1.312
			c0.048,0.015,0.365-0.782,0.651-1.79c0.3-1.004,0.491-1.84,0.432-1.854c-0.061-0.016-0.178,0.219-0.264,0.52
			c-0.087,0.303-0.473,1.134-0.856,1.841c-0.505,0.932-0.883,1.709-1.232,2.879c-0.255,0.895-0.372,1.816-0.554,2.076
			c-0.034,0.048,0.221,0.08,0.221,0.103v-0.141c0-0.174-0.107-0.482,0.104-0.955c0.391-0.947,0.435-1.639,0.425-1.899
			c-0.016-0.266,0.372-1.656,1.017-4.041c0.59-2.007,0.852-3.859,0.875-4.056c0.011-0.198,0.16-1.254,0.337-2.347l0.332-1.981
			l-0.486,2.001C146.349,91.578,146.067,92.462,146.004,92.448z"/>
		<path fill="#00AA9D" d="M149.717,88.089c-0.069,0.389-0.218,1.202-0.504,2.764c0,0-0.143,0.784-0.285,1.569
			c-0.176,0.778-0.353,1.556-0.353,1.556s0.144-0.381,0.288-0.763c0.146-0.38,0.278-0.766,0.278-0.766
			c0.56-1.771,0.959-3.595,0.796-4.196C149.854,87.875,149.801,87.737,149.717,88.089z"/>
		<path fill="#00AA9D" d="M148.117,92.894c-0.334,0.771-0.546,1.419-0.469,1.449c0.194,0.072,0.907-1.276,1.072-2.136
			C148.911,91.101,148.762,91.329,148.117,92.894z"/>
		<path fill="#00AA9D" d="M147.902,91.681c-0.105,0.244-0.248,0.76-0.345,1.142c-0.089,0.385-0.11,0.708-0.051,0.722
			c0.062,0.014,0.23-0.496,0.377-1.136C148.002,91.765,148.007,91.438,147.902,91.681z"/>
		<path fill="#00AA9D" d="M145.914,95.918c-0.188,0.622-0.278,1.059-0.195,1.082c0.06,0.017,0.178-0.214,0.266-0.515
			c0.1-0.295,0.391-1.357,0.649-2.362c0.468-1.763,0.468-1.776-0.017-0.437C146.33,94.469,146.094,95.292,145.914,95.918z"/>
		<path fill="#00AA9D" d="M145.765,100.612c-0.174,0.624-0.241,0.99-0.147,0.81c0.091-0.18,0.252-0.688,0.357-1.125
			C146.257,99.107,146.12,99.313,145.765,100.612z"/>
		<path fill="#00AA9D" d="M74.523,150.757l-0.048-0.056c-0.05,0.016-0.057,0.036-0.017,0.056c0.017,0.01,0.046,0.026,0.082,0.037
			L74.523,150.757z"/>
		<path fill="#00AA9D" d="M74.559,150.819l-0.007-0.021c-0.005-0.001-0.005-0.004-0.011-0.004l0.013,0.025H74.559z"/>
		<path fill="#00AA9D" d="M87.849,149.543c1.497-0.202,2.032-0.348,2.007-0.467c-0.018-0.081-1.022,0.032-2.609,0.281
			c-1.942,0.336-2.821,0.414-2.693,0.479C84.682,149.883,85.816,149.856,87.849,149.543z"/>
		<path fill="#00AA9D" d="M82.489,150.056c1.065-0.137,0.821-0.18-0.468-0.103c-0.664,0.013-0.961,0.055-0.694,0.098
			C81.58,150.088,82.106,150.115,82.489,150.056z"/>
		<path fill="#00AA9D" d="M76.313,151.605c-0.254-0.032-0.905-0.02-1.453,0.025c-0.038,0.005-0.073,0.007-0.104,0.011l-0.046,0.003
			l-0.021,0.003l-0.009,0.001l-0.145-0.001c-0.047,0.003-0.081,0.008-0.108,0.009c-0.051,0.006-0.058,0.014-0.021,0.021
			c0.021,0.002,0.049,0.006,0.087,0.01l0.032,0.003c0.056,0.001,0.111,0.002,0.173,0.003c0.027,0.001,0.058,0.001,0.09,0.001
			c0.133-0.001,0.31-0.003,0.531-0.005C76.119,151.675,76.564,151.637,76.313,151.605z"/>
		<path fill="#00AA9D" d="M71.744,152.628c-0.191,0.044,0.267,0.096,1.012,0.114c0.745,0.02,1.36-0.005,1.361-0.054
			c0.001-0.049-0.456-0.1-1.017-0.113C72.546,152.561,71.931,152.585,71.744,152.628z"/>
		<path fill="#00AA9D" d="M72.129,152.244c-0.513-0.021-0.939-0.04-1.28-0.055c-0.378-0.022-0.661-0.03-0.83-0.022
			c-0.342,0.015-0.243,0.091,0.384,0.226c0.742,0.163,0.885,0.146,0.898,0.047c0.002-0.075,0.558-0.127,1.237-0.119
			C73.308,152.33,73.153,152.302,72.129,152.244z"/>
		<path fill="#00AA9D" d="M72.412,150.409c-0.141-0.063-0.597-0.106-1.535-0.171c-0.98-0.117-2.493-0.185-4.516-0.434
			c-3.546-0.415-5.094-0.762-4.871-0.637c0.113,0.051,0.676,0.185,1.669,0.392c0.999,0.192,2.426,0.396,4.291,0.637
			C72.039,150.635,72.688,150.518,72.412,150.409z"/>
		<path fill="#00AA9D" d="M63.511,151.899c-0.008,0.056,0.504,0.14,1.138,0.185c0.632,0.045,0.961,0.01,0.73-0.075
			C64.9,151.83,63.535,151.749,63.511,151.899z"/>
		<path fill="#00AA9D" d="M63.004,149.004c-0.696-0.154-1.845-0.358-2.552-0.457c-0.708-0.099-0.139,0.028,1.268,0.279
			C63.125,149.077,63.704,149.156,63.004,149.004z"/>
		<path fill="#00AA9D" d="M61.248,150.632c-0.603-0.071-0.432-0.014,0.442,0.148c0.789,0.146,1.237,0.198,0.993,0.117
			C62.44,150.816,61.795,150.697,61.248,150.632z"/>
		<path fill="#00AA9D" d="M55.637,149.247c-0.896-0.253-1.548-0.401-1.279-0.249c0.236,0.117,1.466,0.569,2.775,0.844
			c1.803,0.416,2.109,0.458,1.279,0.182C57.696,149.774,56.533,149.5,55.637,149.247z"/>
		<path fill="#00AA9D" d="M58.73,148.597c-0.398-0.091-0.737-0.117-0.751-0.059c-0.014,0.062,0.302,0.187,0.702,0.278
			c0.402,0.093,0.741,0.12,0.754,0.058C59.448,148.814,59.13,148.689,58.73,148.597z"/>
		<path fill="#00AA9D" d="M58.772,147.498c-0.229-0.091-0.846-0.236-1.369-0.325c-0.58-0.098-0.417-0.032,0.417,0.167
			C58.574,147.519,59.003,147.59,58.772,147.498z"/>
		<path fill="#00AA9D" d="M46.747,145.061c-0.867-0.325-1.56-0.636-1.586-0.575c-0.009,0.021,0.295,0.17,0.82,0.409
			c0.53,0.223,1.292,0.506,2.179,0.839c0.882,0.348,1.911,0.686,2.98,1.003c1.063,0.339,2.164,0.658,3.219,0.894
			c1.484,0.336,0.993,0.239-2.437-0.962c-2.121-0.749-3.75-1.424-4.621-1.736c-0.873-0.309-0.983-0.272,0.015,0.238
			C48.11,145.574,48,145.554,46.747,145.061z"/>
		<path fill="#00AA9D" d="M42.758,144.301c-2.406-1.241-6.288-3.372-8.524-4.896c-5.38-3.437-9.024-6.67-11.417-8.956
			c-2.388-2.3-3.605-3.62-3.813-3.813c-0.142-0.121,1.391,1.725,4.044,4.319c2.64,2.606,6.49,5.878,10.751,8.673
			c4.241,2.823,8.864,5.149,12.518,6.646c0.92,0.361,1.769,0.695,2.529,0.994c0.768,0.279,1.458,0.497,2.032,0.692
			c1.152,0.387,1.872,0.616,2.014,0.631c0.408,0.091-0.723-0.308-2.484-0.963C48.622,147.032,45.179,145.518,42.758,144.301z"/>
		<path fill="#00AA9D" d="M36.837,140.198c-0.356-0.104,0.162,0.214,1.706,1.045c1.202,0.69,3.049,1.596,4.021,2.183
			c1.397,0.762,1.834,0.93,1.877,0.833c0.038-0.087-1.74-0.933-3.548-1.917C39.057,141.408,37.221,140.285,36.837,140.198z"/>
		<path fill="#00AA9D" d="M44.085,143.687c-0.454-0.238-1.221-0.578-1.684-0.796c-0.47-0.211-0.115,0.02,0.809,0.463
			C44.146,143.777,44.539,143.928,44.085,143.687z"/>
		<path fill="#00AA9D" d="M37.625,140.351c2.125,1.247,3.114,1.723,2.135,1.176c-0.948-0.598-2.728-1.544-3.852-2.274
			C34.776,138.531,35.501,139.104,37.625,140.351z"/>
		<path fill="#00AA9D" d="M38.792,140.47c-0.32-0.273-1.163-0.79-1.866-1.173c-1.699-1.01-1.622-0.874,0.56,0.521
			C38.919,140.688,39.237,140.846,38.792,140.47z"/>
		<path fill="#00AA9D" d="M35.989,142.368c-0.35-0.243-0.662-0.401-0.694-0.35c-0.037,0.061,0.237,0.282,0.607,0.495
			c0.368,0.212,0.681,0.367,0.695,0.343C36.611,142.832,36.337,142.612,35.989,142.368z"/>
		<path fill="#00AA9D" d="M33.262,138.146c0.852,0.584,1.235,0.771,0.813,0.473c-0.425-0.293-1.106-0.791-1.545-1.063
			S32.421,137.549,33.262,138.146z"/>
		<path fill="#00AA9D" d="M32.647,136.421c-0.31-0.267-0.593-0.44-0.632-0.39c-0.039,0.054,0.201,0.291,0.534,0.527
			c0.333,0.238,0.617,0.412,0.633,0.389C33.199,136.925,32.958,136.689,32.647,136.421z"/>
		<path fill="#00AA9D" d="M28.335,133.826c-0.372-0.339-1.124-1.007-1.694-1.458c-0.567-0.455-0.272-0.165,0.658,0.644
			C28.223,133.83,28.715,134.162,28.335,133.826z"/>
		<path fill="#00AA9D" d="M14.821,127.489c-0.098,0.081,0.082,0.399,0.397,0.708c0.316,0.306,0.63,0.508,0.696,0.449
			c0.068-0.059-0.111-0.377-0.396-0.706C15.231,127.61,14.919,127.407,14.821,127.489z"/>
		<path fill="#00AA9D" d="M14.768,123.361c-1.439-1.626-1.499-1.757-0.645-0.55c0.596,0.764,1.15,1.596,1.231,1.852
			c0.119,0.354,0.312,0.649,0.922,1.217c0.91,0.828,1.221,0.808,0.62-0.028C16.657,125.556,15.717,124.425,14.768,123.361z"/>
		<path fill="#00AA9D" d="M17.044,124.386c-0.697-0.915-1.225-1.692-1.179-1.729c0.08-0.061-0.224-0.488-0.599-0.924
			c-0.359-0.448-0.783-0.908-0.988-1.004c-0.452-0.215,0.42,1.179,2.792,3.881c0,0,0.32,0.351,0.647,0.696
			c0.326,0.346,0.653,0.691,0.653,0.691s-0.335-0.4-0.669-0.802C17.359,124.801,17.044,124.386,17.044,124.386z"/>
		<path fill="#00AA9D" d="M14.507,119.499c-0.372-0.523-0.735-0.912-0.807-0.864c-0.083,0.057,0.477,0.973,1.583,2.569
			c0.475,0.68,0.958,1.258,1.296,1.688c0.344,0.423,0.566,0.681,0.585,0.665c0.037-0.031-0.573-0.869-1.352-1.864
			c-0.806-1.074-1.192-1.737-0.987-1.551C15.023,120.311,14.879,120.024,14.507,119.499z"/>
		<path fill="#00AA9D" d="M14.771,122.535c0.058-0.045-0.37-0.58-1.154-1.495c-0.687-0.785-1.61-1.936-2.005-2.58
			c-0.604-0.922-0.63-0.941-0.136-0.098c0.172,0.285,0.455,0.74,0.796,1.223c0.353,0.477,0.748,0.994,1.1,1.436
			C14.073,121.907,14.705,122.586,14.771,122.535z"/>
		<path fill="#00AA9D" d="M13.516,119.56c-0.167-0.252-0.811-1.217-1.85-2.777c0,0-0.119-0.178-0.298-0.446
			c-0.185-0.267-0.416-0.628-0.632-0.998c-0.444-0.736-0.888-1.474-0.888-1.474l0.637,0.512c0.542,0.434,0.533,0.332-0.05-0.681
			c-0.396-0.642-1.257-1.996-1.94-3.007c-1.582-2.295-2.769-4.69-3.339-6.425c-0.124-0.368-0.332-0.873-0.549-1.394
			c-0.201-0.528-0.423-1.068-0.619-1.497c-0.195-0.428-0.473-1.104-0.755-1.851c-0.251-0.756-0.508-1.585-0.71-2.298
			c-0.632-2.186-0.615-2.402-0.471-1.221c0.152,0.759,0.895,3.613,2.162,6.975c1.292,3.354,3.155,7.164,4.873,10.052
			c0.557,0.891,1.188,1.896,1.756,2.802c0.605,0.884,1.144,1.667,1.469,2.14C13.248,119.369,13.68,119.797,13.516,119.56z"/>
		<path fill="#00AA9D" d="M0.99,79.088c-0.049,0.001-0.046,0.679,0.008,1.504c0.045,0.825,0.198,1.493,0.235,1.49
			c0.06-0.004-0.012-0.676-0.057-1.499C1.122,79.762,1.039,79.087,0.99,79.088z"/>
		<path fill="#00AA9D" d="M1.841,67.539c0.022-0.181,0.018-0.542-0.01-0.805c-0.03-0.263-0.098-0.122-0.154,0.315
			c-0.055,0.434-0.051,0.796,0.011,0.804C1.749,67.86,1.818,67.718,1.841,67.539z"/>
		<path fill="#00AA9D" d="M3.687,51.735c0.265-0.693,0.731-1.811,0.971-2.515c0.247-0.702,0.001-0.146-0.543,1.236
			C3.555,51.832,3.438,52.434,3.687,51.735z"/>
		<path fill="#00AA9D" d="M7.259,43.19c0.15-0.212,0.457-0.802,0.682-1.311c0.25-0.566,0.142-0.416-0.273,0.382
			C7.291,42.984,7.108,43.403,7.259,43.19z"/>
		<path fill="#00AA9D" d="M15.726,30.438c0.352-0.505,0.217-0.377-0.34,0.322c-0.505,0.635-0.765,1.009-0.577,0.831
			C14.997,31.413,15.408,30.894,15.726,30.438z"/>
		<path fill="#00AA9D" d="M17.865,27.694c0.361-0.366,1.005-1.183,1.488-1.768c0.813-1.032,0.812-1.035-0.07-0.02
			c-0.523,0.574-1.165,1.397-1.489,1.771C17.375,28.171,17.394,28.177,17.865,27.694z"/>
		<path fill="#00AA9D" d="M23.543,21.439c-1.129,1.072-2.016,1.99-1.973,2.032c0.044,0.045,0.825-0.678,1.841-1.7
			C25.968,19.358,26.036,19.258,23.543,21.439z"/>
		<path fill="#00AA9D" d="M35.834,11.984c0.643-0.396,0.247-0.219-0.85,0.442c-1.082,0.688-1.588,1.042-1.129,0.784
			C34.319,12.959,35.184,12.37,35.834,11.984z"/>
		<path fill="#00AA9D" d="M34.233,13.414c0.033,0.052,0.335-0.082,0.671-0.296c0.332-0.219,0.766-0.547,0.964-0.725
			c0.2-0.18-0.119-0.074-0.681,0.276C34.629,13.025,34.2,13.362,34.233,13.414z"/>
		<path fill="#00AA9D" d="M40.66,9.525c1.049-0.653,1.054-0.669,0.025-0.147c-0.634,0.326-1.711,0.903-2.374,1.316
			c-1.087,0.708-1.088,0.721-0.018,0.148C38.94,10.502,40.017,9.932,40.66,9.525z"/>
		<path fill="#00AA9D" d="M40.453,12.993c0.209-0.042,2.209-1.219,4.513-2.272c1.131-0.571,2.35-1.075,3.392-1.524
			c1.037-0.465,1.926-0.798,2.414-0.992c0.826-0.333,1.011-0.375,0.647-0.144c-0.386,0.246-0.105,0.166,1.139-0.319
			c5.979-1.936-1.727-0.298-8.993,3.477C41.628,12.224,40.258,13.072,40.453,12.993z"/>
		<path fill="#00AA9D" d="M45.61,10.65c0.027,0.06,0.629-0.227,1.382-0.542c0.368-0.167,0.706-0.322,0.955-0.435
			c0.244-0.116,0.394-0.194,0.39-0.205c-0.004-0.011-0.164,0.041-0.417,0.132c-0.254,0.096-0.601,0.229-0.982,0.374
			C46.17,10.26,45.591,10.606,45.61,10.65z"/>
		<path fill="#00AA9D" d="M55.927,4.65c0.573-0.132,1.374-0.317,2.396-0.553c0.753-0.196,1.8-0.421,3.056-0.655
			c0.628-0.122,1.304-0.251,2.021-0.39c0.722-0.107,1.482-0.22,2.27-0.337c1.573-0.271,3.277-0.37,4.995-0.558
			c0.862-0.045,1.727-0.09,2.588-0.135c0.43-0.021,0.857-0.042,1.283-0.063c0.448-0.002,0.894-0.004,1.333-0.007
			c0.767-0.002,1.517-0.004,2.24-0.006c0.744,0.006,1.589,0.065,2.317,0.095c0.746,0.039,1.447,0.075,2.096,0.109
			c0.618,0.061,1.186,0.114,1.688,0.162c2.013,0.17,2.977,0.319,2.168,0.172c-0.466-0.081-1.611-0.208-3.108-0.381
			c-0.732-0.099-1.62-0.148-2.548-0.205c-0.464-0.028-0.941-0.056-1.425-0.085c-0.485-0.029-0.991-0.061-1.4-0.054
			c-0.866-0.006-1.742-0.012-2.588-0.019l-0.317-0.002l-0.323-0.002L74.5,1.742c-0.226,0.009-0.45,0.019-0.672,0.028
			c-0.441,0.019-0.87,0.037-1.281,0.056c-1.646,0.046-3.002,0.201-3.759,0.282c-1.665,0.179-2.056,0.192-1.606,0.048
			c0.415-0.125,0.228-0.16-0.624-0.008c-0.666,0.136-2.529,0.385-4.114,0.703c-0.791,0.166-1.787,0.375-2.755,0.578
			c-0.959,0.235-1.88,0.498-2.543,0.678c-1.755,0.468-2.453,0.807-2.238,0.777C55.016,4.878,55.359,4.8,55.927,4.65z"/>
		<path fill="#00AA9D" d="M59.556,2.581c1.006-0.2,2.304-0.46,3.604-0.72c1.302-0.207,2.606-0.415,3.616-0.574
			c1.008-0.127,1.719-0.212,1.831-0.249c0.207-0.048-0.938-0.014-2.531,0.233c-0.793,0.126-1.849,0.291-2.911,0.457
			c-1.053,0.213-2.111,0.429-2.919,0.593c-1.623,0.322-2.746,0.707-2.54,0.67C57.843,2.985,58.552,2.803,59.556,2.581z"/>
		<path fill="#00AA9D" d="M72.069,6.651c-0.257,0.048-0.104,0.146,0.343,0.218c0.682,0.111,0.938,0.103,1.612-0.045
			c0.235-0.043,0.508-0.114,0.92-0.138c0.335-0.031,0.689-0.055,0.979-0.065c0.583-0.018,0.082-0.063-1.114-0.097
			C73.504,6.539,72.347,6.606,72.069,6.651z"/>
		<path fill="#00AA9D" d="M90.921,3.306c0.671,0.145,1.573,0.338,2.502,0.537c1.824,0.451,3.728,0.921,4.145,1.023
			c0.291,0.055-0.341-0.18-1.494-0.483c-1.147-0.323-2.796-0.759-4.534-1.075c-0.939-0.184-1.716-0.318-1.724-0.273
			c-0.002,0.011,0.108,0.034,0.3,0.084C90.31,3.165,90.586,3.228,90.921,3.306z"/>
		<path fill="#00AA9D" d="M100.31,3.851c0.613,0.17,0.442,0.084-0.433-0.218c-0.793-0.274-1.244-0.398-1.007-0.279
			C99.11,3.476,99.758,3.697,100.31,3.851z"/>
		<path fill="#00AA9D" d="M100.588,5.852c1.139,0.452,2.445,0.94,2.925,1.044c0.67,0.153,0.45,0.048-0.969-0.454
			c-0.505-0.18-1.086-0.387-1.614-0.576c-0.54-0.17-1.025-0.325-1.33-0.421C98.99,5.249,99.434,5.43,100.588,5.852z"/>
		<path fill="#00AA9D" d="M106.803,8.345c0.782,0.342,1.423,0.626,1.447,0.576c0.026-0.051-0.589-0.394-1.388-0.708
			c-0.393-0.156-0.756-0.299-1.022-0.404c-0.266-0.099-0.431-0.155-0.438-0.145c-0.003,0.011,0.151,0.094,0.405,0.217
			C106.064,8.001,106.415,8.166,106.803,8.345z"/>
		<path fill="#00AA9D" d="M122.162,15.129c0.523,0.364,0.392,0.228-0.339-0.352c-0.662-0.519-1.077-0.754-0.88-0.574
			C121.142,14.381,121.695,14.792,122.162,15.129z"/>
		<path fill="#00AA9D" d="M127.325,18.378c0.611,0.495,0.29,0.182-0.714-0.694c-1.004-0.874-1.506-1.274-1.11-0.893
			C125.893,17.171,126.714,17.884,127.325,18.378z"/>
		<path fill="#00AA9D" d="M132.5,23.454c0.562,0.549,0.275,0.209-0.643-0.756c-0.916-0.964-1.379-1.411-1.023-0.995
			C131.191,22.117,131.939,22.905,132.5,23.454z"/>
		<path fill="#00AA9D" d="M140.623,42.397c0.753,1.468,1.428,2.727,1.842,3.655c0.438,0.917,0.711,1.456,0.74,1.443
			c0.028-0.013-0.159-0.492-0.476-1.233c-0.306-0.746-0.756-1.744-1.294-2.767c-1.004-2.087-2.361-4.265-2.902-5.1
			c-0.645-0.895-0.849-1.14-0.501-0.553C138.39,38.418,139.243,39.863,140.623,42.397z"/>
		<path fill="#00AA9D" d="M148.892,50.078c0.422,1.147,0.147,0.186-0.769-2.083c-0.438-1.142-0.783-1.929-0.966-2.289
			c-0.174-0.363-0.16-0.308,0.079,0.255C147.715,47.083,148.412,48.954,148.892,50.078z"/>
		<path fill="#00AA9D" d="M146.326,45.024c0.188,0.511,0.661,1.485,0.963,2.208c0.307,0.717,0.192,0.284-0.33-0.934
			C146.417,45.089,146.132,44.517,146.326,45.024z"/>
		<path fill="#00AA9D" d="M146.671,49.425c0.057-0.022-0.092-0.535-0.333-1.141c-0.24-0.607-0.453-1.093-0.478-1.083
			c-0.009,0.005,0.021,0.135,0.083,0.341c0.067,0.211,0.155,0.494,0.255,0.8C146.403,48.959,146.615,49.447,146.671,49.425z"/>
		<path fill="#00AA9D" d="M149.874,59.397c0.235,0.609,0.249,0.516,0.048-0.352c-0.145-0.653-0.377-1.423-0.517-1.714
			c-0.128-0.294-0.144-0.135-0.03,0.351C149.496,58.167,149.692,58.945,149.874,59.397z"/>
		<path fill="#00AA9D" d="M151.175,57.815c0.097,0.549,0.3,1.431,0.455,1.965c0.154,0.533,0.079,0.085-0.172-0.997
			C151.208,57.703,151.077,57.268,151.175,57.815z"/>
		<path fill="#00AA9D" d="M153.261,71.864c-0.027-0.422-0.085-1.326-0.156-2.44c-0.121-1.112-0.264-2.434-0.401-3.7
			c-0.161-1.262-0.38-2.401-0.521-3.229c-0.142-0.829-0.258-1.337-0.285-1.331c-0.015,0.003,0.022,0.174,0.06,0.48
			c0.045,0.307,0.107,0.742,0.185,1.264c0.155,1.05,0.407,2.447,0.543,3.881c0.383,2.853,0.482,5.807,0.578,6.127
			C153.319,73.18,153.32,72.708,153.261,71.864z"/>
		<path fill="#00AA9D" d="M150.88,64.015c0.01,0.266,0.124,0.937,0.255,1.492c0.109,0.619,0.145,0.427-0.016-0.481
			C150.979,64.205,150.87,63.749,150.88,64.015z"/>
		<path fill="#00AA9D" d="M151.454,67.919c-0.004,0.265,0.077,0.941,0.18,1.502c0.076,0.625,0.118,0.433,0.009-0.481
			C151.544,68.114,151.459,67.653,151.454,67.919z"/>
		<path fill="#00AA9D" d="M152.058,73.778c-0.013,0.534,0.013,1.599,0.059,2.366c0.047,0.769,0.063,0.33,0.031-0.972
			C152.117,73.869,152.075,73.242,152.058,73.778z"/>
		<path fill="#00AA9D" d="M153.292,75.941c-0.03-1.32-0.072-1.958-0.087-1.413c-0.017,0.542,0.008,1.622,0.054,2.401
			C153.306,77.708,153.322,77.265,153.292,75.941z"/>
	</g>
</g>
<g id="Capa_2" display="none">
	<path display="inline" fill="#00AA9D" d="M146.004,92.448c-0.052-0.012-0.352,0.866-0.669,1.943
		c-0.263,0.917-0.421,1.376-0.476,1.438c-0.051,0.063,0.035-0.262,0.142-0.947c0.135-0.807,0.147-1.058,0.028-0.563
		c-0.118,0.494-0.293,0.878-0.384,0.855c-0.085-0.021-0.319,0.43-0.521,1.003c-0.449,1.289-0.762,1.298-0.399,0.024
		c0.162-0.507,0.574-1.648,0.927-2.541c0.746-1.741,1.021-3.146,0.965-3.995c-0.02-0.296-0.062-0.222-0.093,0.162
		c-0.031,0.385-0.189,1.165-0.351,1.732c-0.273,0.876-0.003,0.87,0.095-0.017c0.072-0.965-0.269-0.249-1.269,2.82V93.5
		c0-0.617,0.07-1.285,0.236-1.858c0.277-1.157,0.586-2.812,0.854-3.679l0.358-1.59l-0.281-0.03
		c-0.134-0.018-0.312,0.355-0.371,0.826c-0.032,0.477-0.148,2.028-0.568,3.444c-0.191,0.695-0.228,1.226-0.228,1.705V91.62
		c0-0.059-0.26-0.128-0.239-0.187c0.168-0.623,0.153-1.169,0.261-1.619c0.209-0.902,0.516-1.424,0.436-1.436
		C144.365,88.367,144,88.94,144,89.741v-5.66c0-2.228,0.031-4.483,0.031-6.768c0-38.132-31.074-69.057-69.206-69.057
		c-18.74,0-35.806,7.48-48.25,19.605c0.701-0.765,1.415-1.569,2.166-2.288c2.01-2.064,5.652-5.118,8.043-6.839
		c2.34-1.791,5.458-3.638,6.747-4.366c1.281-0.744,2.364-1.286,2.338-1.346c-0.005-0.011,0.127-0.092,0.376-0.23
		c0.25-0.136,0.608-0.337,1.061-0.563c0.922-0.417,2.179-1.038,3.609-1.612c2.833-1.225,7.598-2.702,10.531-3.373
		c1.46-0.352,4.126-0.924,7.286-1.302c0.791-0.089,1.61-0.193,2.447-0.272c0.84-0.055,1.697-0.1,2.556-0.157l0.646-0.018
		l0.163,0.035l0.081-0.314L74.664,5h0.112l0.311,0.21l1.245-0.002c0.838-0.002,1.616,0.048,2.474,0.085
		c3.021,0.071,5.474,0.341,7.424,0.562c1.942,0.26,3.384,0.472,4.253,0.654c1.751,0.323,1.312,0.183-1.676-0.374
		c-0.349-0.051-0.914-0.128-1.677-0.24c-0.76-0.119-1.717-0.248-2.856-0.335c-1.135-0.108-2.438-0.238-3.953-0.273
		c-0.741-0.022-1.561-0.077-2.341-0.073c-0.772,0.01-1.582,0.02-2.421,0.031c-3.583,0.103-7.548,0.438-11.87,1.258
		c-4.299,0.827-8.862,2.133-13.398,3.984c-1.14,0.503-2.275,1.006-3.352,1.482C45.891,12.5,44.901,13,44.021,13.445
		c-1.709,0.977-2.989,1.689-3.392,1.984c-0.613,0.409-1.479,0.985-2.461,1.638c-0.958,0.703-2.048,1.455-3.077,2.233
		c-1.008,0.809-2.021,1.547-2.815,2.23c-0.797,0.677-1.44,1.213-1.796,1.493c-0.717,0.567-1.3,1.043-1.346,0.989
		c-0.041-0.046,0.279-0.389,0.709-0.761c0.433-0.366,0.909-0.776,1.032-0.942c0.125-0.165-1.101,0.731-2.627,2.108
		c-1.554,1.342-2.431,2.272-2.107,1.889c0.34-0.364,0.479-0.583,0.311-0.487c-0.162,0.103,0.329-0.439,1.161-1.124
		c1.052-0.867,1.271-1.08,0.719-0.698c-0.642,0.444-0.631,0.388,0.069-0.294c0.482-0.459,1.142-1.064,1.509-1.281
		c0.357-0.231,0.467-0.337,0.243-0.237c-0.113,0.051,0.585-0.602,1.819-1.707c1.265-1.063,3.097-2.542,5.294-4.062
		c1.091-0.751,2.206-1.436,3.236-2.11c1.065-0.617,2.061-1.193,2.936-1.699c1.791-0.931,3.088-1.612,3.457-1.777
		c0.738-0.328,2.315-1.106,3.549-1.607c2.141-0.866,2.54-1.062,1.563-0.721c-0.486,0.175-1.322,0.464-2.437,0.908
		c-1.093,0.499-2.513,1.031-4.091,1.855c-3.545,1.706-6.507,3.59-6.842,3.742c-0.5,0.228-0.339,0.041,0.314-0.437
		c0.327-0.236,0.772-0.553,1.327-0.911c0.578-0.338,1.247-0.728,1.986-1.161c1.53-0.896,2.673-1.433,2.438-1.391
		c-0.154,0.043-0.635,0.261-1.305,0.584c-0.667,0.333-1.5,0.817-2.393,1.32c-0.901,0.488-1.805,1.103-2.643,1.647
		c-0.842,0.538-1.585,1.065-2.108,1.489c-0.409,0.326-1.201,0.865-2.184,1.595c-0.956,0.767-2.188,1.609-3.39,2.651
		c-2.496,1.967-5.055,4.458-6.918,6.285c-0.836,0.877-1.061,1.06-0.839,0.743c0.221-0.319,0.882-1.146,1.902-2.21
		c1.98-2.184,5.381-5.359,8.861-7.827c1.327-0.944,2.621-1.831,3.631-2.5c1.024-0.647,1.743-1.115,1.903-1.248
		c0.159-0.134,0.763-0.55,1.644-1.052c0.878-0.506,1.985-1.192,3.19-1.769c1.809-0.945,3.309-1.599,4.503-2.122
		c1.184-0.552,2.107-0.849,2.756-1.124c1.311-0.518,1.63-0.654,1.472-0.627c-0.166,0.028-1.225,0.41-2.346,0.849
		c-0.944,0.338-2.358,0.984-3.982,1.68c-1.597,0.758-3.4,1.586-5.029,2.511c-3.305,1.762-6.028,3.627-6.243,3.727
		c-0.471,0.212-0.375,0.063,0.364-0.504c0.728-0.584,2.147-1.509,4.333-2.832c3.051-1.751,4.397-2.402,3.76-2.19
		c-0.631,0.219-0.475,0.046,0.289-0.409c0.382-0.227,0.915-0.524,1.579-0.878c0.667-0.343,1.482-0.7,2.397-1.113
		c1.439-0.669,2.458-1.068,2.194-1.058c-0.26,0.025,0.524-0.353,1.752-0.838c1.591-0.6,2.217-0.791,1.839-0.709
		c-0.187,0.045-0.62,0.171-1.299,0.377c-0.666,0.24-1.574,0.568-2.726,0.984c-4.134,1.609-6.7,2.901-8.27,3.698
		c-1.563,0.813-2.165,1.085-2.208,1.019c-0.062-0.095-0.201-0.039-0.602,0.34c-0.283,0.262-1.24,0.909-2.126,1.439
		c-0.457,0.244-1.625,1.076-3.176,2.148c-1.52,1.119-3.378,2.545-5.13,4.094c-0.901,0.742-1.699,1.546-2.463,2.247
		c-0.77,0.697-1.431,1.377-1.996,1.958c-1.147,1.143-1.876,1.92-1.968,2.008c-0.608,0.545-0.122-0.443,5.039-5.261
		c1.427-1.269,2.752-2.401,3.739-3.189c0.492-0.391,0.893-0.71,1.173-0.934c0.275-0.224,0.424-0.353,0.417-0.363
		c-0.027-0.04-0.333,0.128-0.675,0.37c-0.342,0.244-0.653,0.403-0.689,0.353c-0.037-0.05,0.404-0.425,0.979-0.833
		c0.571-0.406,0.838-0.636,0.593-0.512c-0.243,0.135-0.014-0.193,0.561-0.655c0.583-0.48,0.791-0.663,0.417-0.401
		c-0.384,0.247-1.327,0.979-2.998,2.361c-1.289,1.065-2.976,2.546-3.794,3.245c-0.399,0.359-1.114,1.005-1.947,1.757
		c-0.82,0.759-1.699,1.685-2.516,2.503c-0.801,0.834-1.906,2.067-3.041,3.372c-1.103,1.335-2.255,2.728-3.109,3.923
		c-1.792,2.328-4.66,6.817-6.181,10.029c-1.59,3.176-3.122,6.965-3.577,8.347c-1.171,3.15-3.797,11.262-4.202,21.313
		c-0.027,1.088-0.097,2.237-0.083,3.199c0.014,0.957,0.028,1.859,0.041,2.657c0.004,0.235,0.008,0.461,0.013,0.681
		c0.011,0.195,0.022,0.383,0.033,0.563c0.021,0.36,0.039,0.687,0.055,0.973C2,79.56,2.019,79.973,2.028,80.177
		c0.094,2.467,0.02,4.3-0.328,3.731c-0.254-0.502-0.383-0.424,0.372,4.599c0.283,1.388,0.531,2.934,0.855,4.278
		c0.329,1.343,0.585,2.515,0.767,3.172c0.375,1.347,0.661,2.189,0.65,1.934c-0.046-0.585,1.473,4.04,2.347,6.269
		c0.379,1.073,0.663,1.753,0.742,1.719c0.063-0.027,0.337,0.521,0.619,1.234c0.157,0.381,0.481,1.142,0.973,2.109
		c0.523,0.954,1.132,2.155,1.893,3.396c1.499,2.495,3.419,5.238,5.066,7.206c1.278,1.572,3.071,3.626,3.966,4.581
		c0.848,0.998,2.556,2.686,3.724,3.802c0.61,0.535,1.687,1.549,2.992,2.684c0.663,0.557,1.375,1.15,2.095,1.752
		c0.732,0.587,1.496,1.152,2.212,1.709c1.449,1.091,3.409,2.468,5.454,3.706c1.002,0.652,2.061,1.21,3.039,1.761
		c0.97,0.564,1.922,1.011,2.733,1.414c2.046,1.045,5.167,2.405,8.763,3.666c3.592,1.273,7.7,2.323,11.6,2.967
		c0.971,0.192,1.934,0.313,2.872,0.429c0.939,0.111,1.833,0.26,2.733,0.31c0.891,0.07,1.743,0.136,2.544,0.199
		c0.798,0.057,1.488,0.052,2.152,0.081c0.682,0.021,1.305,0.04,1.858,0.058c0.551-0.007,1.034-0.013,1.436-0.019
		c0.802-0.008,1.28,0.57,1.35,0.587c0.228,0.072,1.586,0.49,3.094,0.49h3.648c-0.458,0-0.266,0,0.694,0h2.817
		c-0.118,0-0.22-0.541-0.344-0.522c-0.866,0.144-1.848,0.026-2.97,0.132c-1.12,0.121-2.366,0.24-3.77,0.3
		c-0.897,0.049-1.775,0.091-2.599,0.091c-0.821,0-1.586,0-2.255,0c-0.332,0-0.641-0.108-0.922-0.11
		c-0.069-0.003-0.136-0.063-0.203-0.063l-0.134-0.025l-0.047-0.014l-0.09-0.01c-0.118-0.009-0.229-0.019-0.331-0.027
		c-0.412-0.03-0.69-0.057-0.798-0.077c-0.491-0.091-1.323-0.157-2.034-0.178c-0.728-0.034-1.377-0.063-1.375,0.019
		c-0.008,0.059,0.602,0.172,1.306,0.218c0.672,0.022-0.002,0.077-1.695-0.021c0,0-0.757-0.038-1.516-0.074
		c-0.767-0.024-1.496-0.113-1.496-0.113s0.726,0.117,1.492,0.169c0.757,0.066,1.515,0.13,1.515,0.13c1.772,0.181,3,0.171,4.09,0.228
		c0.267,0.013,0.519,0.021,0.756,0.031l0.176,0.007l0.271,0.004c0.119-0.001,0.232-0.001,0.344-0.002
		c0.442-0.003,0.829-0.003,1.163-0.005c1.094-0.006,1.303,0.665,0.205,0.692c-0.411,0.012-0.75-0.026-0.751-0.092
		s-0.389-0.056-0.861,0c-0.072,0.01-0.134,0.053-0.188,0.06l-0.02,0.074l0.02-0.013l0.04-0.01c0.032,0.004,0.063,0.009,0.097,0.015
		c0.149,0.016,0.337,0.034,0.569,0.058c1.893,0.157,2.24,0.145,3.19-0.215c0.516-0.211,0.551-0.343,0.1-0.352
		c-1.152-0.059-1.159-0.122,0.076-0.216c0.622-0.052,1.548-0.132,2.798-0.237c1.251-0.115,2.821,0.27,4.72,0.006
		c0.883-0.152,1.707,0.145,2.491,0.145h7.587c-0.183,0-0.358-0.475-0.5-0.427c-0.331,0.103-0.534-0.118-0.532-0.108
		c0.005,0.014,0.217,0.403,0.554,0.326c0.241-0.061,0.562,0.209,0.902,0.209h1.74c-0.08,0-0.165-0.522-0.245-0.497
		c-0.857,0.288-1.713,0.239-2.55,0.452c-0.834,0.217-1.638,0.298-2.417,0.484c-1.569,0.318-2.989,0.595-4.226,0.78
		c-1.232,0.189-2.258,0.312-3.004,0.427c-0.751,0.078-1.22,0.103-1.339,0.108c-0.402,0.014-1.521,0.185-2.496,0.377
		c-1.488,0.233-1.985,0.261-3.043,0.185c-0.692-0.03-1.662-0.116-2.159-0.094c-0.526,0.012-0.424,0.055,0.249,0.101
		c1.089,0.073,1.012,0.095-0.697,0.172c-1.678,0.074-1.68,0.226,0.005,0.185c1.504-0.038,1.64-0.02,0.708,0.099
		c-0.874,0.109-0.691,0.117,0.773,0.028c1.691-0.142,4.434-0.358,7.473-0.803c1.517-0.221,3.107-0.518,4.682-0.816
		c1.56-0.362,3.129-0.075,4.561-0.491c1.1-0.275,2.631-0.696,4.349-0.696H144v-42.302c0-0.011-0.289-0.021-0.282-0.032
		c1.273-2.166,1.155-2.552,0.636-2.414c-0.15,0.033-0.114-0.437,0.231-1.313c0.414-1.032,0.396-1.351,0.148-1.274
		c-0.288,0.088-0.274-0.069,0.224-1.23c0.315-0.735,0.6-1.326,0.646-1.312c0.048,0.015,0.365-0.782,0.651-1.79
		c0.3-1.004,0.491-1.84,0.432-1.854c-0.061-0.016-0.178,0.219-0.264,0.52c-0.087,0.303-0.473,1.134-0.856,1.841
		c-0.505,0.932-0.883,1.709-1.232,2.879c-0.255,0.895-0.372,1.816-0.554,2.076c-0.034,0.048,0.221,0.08,0.221,0.103v-0.141
		c0-0.174-0.107-0.482,0.104-0.955c0.391-0.947,0.435-1.639,0.425-1.899c-0.016-0.266,0.372-1.656,1.017-4.041
		c0.59-2.007,0.852-3.859,0.875-4.056c0.011-0.198,0.16-1.254,0.337-2.347l0.332-1.981l-0.486,2.001
		C146.349,91.578,146.067,92.462,146.004,92.448z"/>
</g>
</svg>
